<svg xmlns="http://www.w3.org/2000/svg" xmlns:xlink="http://www.w3.org/1999/xlink" viewBox="0 0 24 24" width="24" height="24" fill="#333"><path d="M9.707 3.25h4.586a.25.25 0 0 1 .177.073l.707.707c.14.141.331.22.53.22H18a.75.75 0 0 1 0 1.5H6a.75.75 0 0 1 0-1.5h2.293a.75.75 0 0 0 .53-.22l.707-.707a.25.25 0 0 1 .177-.073z"></path><path fill-rule="evenodd" d="M6.25 19V7.25h11.5V19c0 .962-.788 1.75-1.75 1.75H8c-.962 0-1.75-.788-1.75-1.75zm10-.5v-9a.75.75 0 0 0-.75-.75h-7a.75.75 0 0 0-.75.75v9c0 .414.336.75.75.75h7a.75.75 0 0 0 .75-.75z" clip-rule="evenodd">
<path d="M9.707 3.25h4.586a.25.25 0 0 1 .177.073l.707.707c.14.141.331.22.53.22H18a.75.75 0 0 1 0 1.5H6a.75.75 0 0 1 0-1.5h2.293a.75.75 0 0 0 .53-.22l.707-.707a.25.25 0 0 1 .177-.073z"></path>
<path fill-rule="evenodd" d="M6.25 19V7.25h11.5V19c0 .962-.788 1.75-1.75 1.75H8c-.962 0-1.75-.788-1.75-1.75zm10-.5v-9a.75.75 0 0 0-.75-.75h-7a.75.75 0 0 0-.75.75v9c0 .414.336.75.75.75h7a.75.75 0 0 0 .75-.75z" clip-rule="evenodd"></path>
</path>
</svg>