<svg  xmlns="http://www.w3.org/2000/svg" xmlns:xlink="http://www.w3.org/1999/xlink" viewBox="0 0 24 24" width="20" height="20" fill="currentColor" class="_DEYS" style="color: rgb(132, 132, 132);"><path d="M10.72 19.84c-2.58-2.33-4.7-4.26-6.18-6.07-1.48-1.8-2.29-3.46-2.29-5.27A5.2 5.2 0 017.5 3.25c1.57 0 3.08.69 4.12 1.8.2.21.55.21.76 0a5.74 5.74 0 014.12-1.8 5.2 5.2 0 015.25 5.25c0 1.8-.81 3.47-2.29 5.27-1.47 1.8-3.58 3.73-6.15 6.06l-.03.02-.77.7a.75.75 0 01-1.01 0l-.78-.7z"></path>
<path d="M10.72 19.84c-2.58-2.33-4.7-4.26-6.18-6.07-1.48-1.8-2.29-3.46-2.29-5.27A5.2 5.2 0 017.5 3.25c1.57 0 3.08.69 4.12 1.8.2.21.55.21.76 0a5.74 5.74 0 014.12-1.8 5.2 5.2 0 015.25 5.25c0 1.8-.81 3.47-2.29 5.27-1.47 1.8-3.58 3.73-6.15 6.06l-.03.02-.77.7a.75.75 0 01-1.01 0l-.78-.7z"></path>
</svg>